<svg id="Layer_1" enable-background="new 0 0 512 512" viewBox="0 0 512 512" xmlns="http://www.w3.org/2000/svg"><path d="m491 431.6h-12.29l3.39-23.97c.23-1.61-.21-3.24-1.2-4.52s-2.47-2.11-4.08-2.28c-2.95-.32-5.85-.59-8.71-.83l1.03-.28c5.71-1.55 10.49-5.25 13.45-10.41s3.73-11.16 2.18-16.87c-1.4-5.14-4.5-9.37-8.53-12.25l-49.35-38.75 12.23-35.26c1.09-3.13-.57-6.55-3.7-7.63-3.13-1.09-6.55.57-7.63 3.7l-10.88 31.35-.26-.2c-9.85-7.73-20.72-11.49-33.23-11.49h-51.32l-120.03-30.88c-2.08-3.6-4.49-7.02-7.28-10.21-12.5-14.3-30.44-22.17-50.5-22.17h-31.77c-17.81 0-33.33 10.12-40.5 26.42l-59.42 135.03c-4.3 9.77-3.42 20.5 2.41 29.44.47.72.97 1.4 1.48 2.07h-5.49c-3.31 0-6 2.69-6 6v27.78c0 3.31 2.69 6 6 6h25.93v19.61c0 3.31 2.69 6 6 6s6-2.69 6-6v-19.62h394.14v19.62c0 3.31 2.69 6 6 6s6-2.69 6-6v-19.62h25.93c3.31 0 6-2.69 6-6v-27.78c0-3.31-2.69-6-6-6zm-24.41 0h-93.51c19.53-16.96 51.8-23.5 96.26-19.46zm-256-45.39 7.2-53.63 56.89 14.64-18.86 52.4c-4.51.3-9.13.7-13.88 1.22-1.61.18-3.09 1-4.08 2.28s-1.43 2.91-1.2 4.52l3.38 23.97h-12.68c3.5-4.8 5.57-10.71 5.57-17.09 0-13.73-9.54-25.25-22.34-28.31zm41.57 45.39-2.75-19.46c44.46-4.04 76.73 2.51 96.26 19.46zm220.01-48.26c-1.37 2.38-3.56 4.09-6.18 4.8l-45.23 12.28c-.04.01-.08.03-.13.04-13.82 1.74-25.95 5.03-36.36 9.86l-5.1 1.39c-5.45 1.48-11.08-1.75-12.56-7.2-.71-2.62-.35-5.38 1.01-7.76 1.37-2.38 3.56-4.09 6.18-4.8l86.82-23.57c3.02-.82 6.09-.19 8.49 1.46.07.05.14.1.21.15 1.82 1.32 3.23 3.25 3.86 5.58.71 2.63.35 5.39-1.01 7.77zm-18.39-25.53-43.61 11.84 12.56-36.22zm-44.54-34.97 3.51 2.75-16.6 47.87-25.48 6.92c-5.71 1.55-10.49 5.25-13.45 10.41s-3.73 11.16-2.18 16.87c1.7 6.26 5.93 11.16 11.28 13.92-2.48 2.07-4.79 4.28-6.94 6.62-12.38-13.49-30.06-22.32-52.87-26.46l14.07-39.09c1.12-3.12-.5-6.55-3.61-7.68-3.12-1.12-6.56.5-7.68 3.61l-14.92 41.45c-7.99-.83-16.51-1.16-25.58-.99l21.21-58.93c5.81-16.16 20.1-26.2 37.27-26.2h56.16c9.85 0 18.05 2.84 25.81 8.93zm-104.89-15.68c-11.65 5.71-20.88 15.77-25.59 28.72l-59.36-15.28.79-5.91c1.39-10.37.63-20.43-2.13-29.73zm-269.29 115.82c-3.63-5.56-4.15-11.97-1.48-18.05l59.43-135.02c5.31-12.06 16.34-19.26 29.52-19.26h31.77c16.55 0 31.27 6.42 41.46 18.07 10.34 11.82 14.79 27.58 12.54 44.38l-9.71 72.32h-105.96l37.61-85.44c1.33-3.03-.04-6.57-3.07-7.91s-6.57.04-7.91 3.07l-41.32 93.86c-.82 1.86-.64 4 .47 5.7s3 2.72 5.02 2.72h120.4c9.42 0 17.09 7.67 17.09 17.09s-7.67 17.09-17.09 17.09h-152.85c-6.64 0-12.29-3.06-15.92-8.62zm449.94 36.4h-458v-15.78h458zm-319.34-228.61c36.71 0 66.58-29.87 66.58-66.58s-29.87-66.58-66.58-66.58-66.58 29.87-66.58 66.58 29.87 66.58 66.58 66.58zm0-121.15c30.09 0 54.58 24.48 54.58 54.58 0 30.09-24.48 54.58-54.58 54.58s-54.58-24.48-54.58-54.58c.01-30.1 24.49-54.58 54.58-54.58zm196.43 189.27c33.28 0 60.35-27.07 60.35-60.35s-27.07-60.35-60.35-60.35-60.35 27.07-60.35 60.35 27.07 60.35 60.35 60.35zm0-108.7c26.66 0 48.35 21.69 48.35 48.35s-21.69 48.35-48.35 48.35-48.35-21.69-48.35-48.35 21.69-48.35 48.35-48.35zm55.77-18.49c.25.03.51.05.77.05s.52-.02.77-.05c19.81-.19 39.57-7.82 54.65-22.9 14.8-14.8 22.95-34.49 22.95-55.42s-8.15-40.62-22.96-55.42c-14.8-14.81-34.48-22.96-55.42-22.96s-40.62 8.15-55.42 22.96c-14.8 14.8-22.96 34.49-22.96 55.42s8.16 40.62 22.96 55.42c15.09 15.08 34.84 22.71 54.66 22.9zm-58.57-84.32h-6.77c1.2-13.48 6.43-26.12 15.12-36.5l4.79 4.79c1.17 1.17 2.71 1.76 4.24 1.76s3.07-.59 4.24-1.76c2.34-2.34 2.34-6.14 0-8.48l-4.79-4.79c10.38-8.68 23.02-13.92 36.5-15.12v6.77c0 3.31 2.69 6 6 6s6-2.69 6-6v-6.77c13.48 1.2 26.12 6.43 36.5 15.12l-4.79 4.79c-2.34 2.34-2.34 6.14 0 8.48 1.17 1.17 2.71 1.76 4.24 1.76s3.07-.59 4.24-1.76l4.79-4.79c8.68 10.38 13.92 23.02 15.12 36.5h-6.77c-3.31 0-6 2.69-6 6s2.69 6 6 6h6.77c-1.2 13.48-6.43 26.12-15.12 36.5l-4.79-4.79c-2.34-2.34-6.14-2.34-8.49 0-2.34 2.34-2.34 6.14 0 8.48l4.78 4.78c-10.64 8.88-23.42 13.92-36.49 15.09v-6.74c0-3.31-2.69-6-6-6s-6 2.69-6 6v6.74c-13.07-1.18-25.85-6.21-36.49-15.09l4.78-4.78c2.34-2.34 2.34-6.14 0-8.48s-6.14-2.34-8.49 0l-4.79 4.79c-8.68-10.38-13.92-23.02-15.12-36.5h6.77c3.31 0 6-2.69 6-6s-2.67-6-5.98-6zm46.92-3.15c-1.95 2.64-3.02 5.81-3.02 9.15 0 4.12 1.61 8 4.52 10.92 2.92 2.92 6.79 4.52 10.92 4.52 4.12 0 8-1.61 10.92-4.52 1.45-1.45 2.55-3.13 3.3-4.92h5.63c3.31 0 6-2.69 6-6s-2.69-6-6-6h-5.63c-.75-1.79-1.85-3.46-3.3-4.92-3.54-3.54-8.39-4.98-13.01-4.35l-11.54-19.98c-1.66-2.87-5.33-3.85-8.2-2.2-2.87 1.66-3.85 5.33-2.2 8.2zm14.84 11.58c-1.3 1.3-3.56 1.3-4.86 0-.65-.65-1.01-1.51-1.01-2.43s.36-1.78 1.01-2.43c.67-.67 1.55-1.01 2.43-1.01s1.76.33 2.43 1c1.34 1.35 1.34 3.53 0 4.87z"/></svg>